<svg width="25" height="24" viewBox="0 0 25 24" fill="none" xmlns="http://www.w3.org/2000/svg">
<g clip-path="url(#clip0_547_1174)">
<path d="M17.8976 14.348C17.6056 14.198 16.1511 13.4855 15.8806 13.389C15.6101 13.2872 15.4119 13.239 15.2163 13.539C15.0181 13.8363 14.4556 14.498 14.2788 14.6988C14.1074 14.8971 13.9333 14.9212 13.6413 14.7738C11.9056 13.906 10.7672 13.2256 9.62346 11.2622C9.32078 10.7399 9.92614 10.7774 10.4913 9.64974C10.5877 9.45153 10.5395 9.28278 10.4645 9.13278C10.3895 8.98278 9.80025 7.53099 9.55382 6.93903C9.31543 6.36313 9.069 6.44349 8.88953 6.43278C8.71811 6.42206 8.52257 6.42206 8.32436 6.42206C8.12614 6.42206 7.80739 6.49706 7.53686 6.78903C7.26632 7.08635 6.50293 7.80153 6.50293 9.25331C6.50293 10.7051 7.56096 12.1113 7.70561 12.3096C7.85561 12.5078 9.78686 15.4863 12.752 16.7694C14.627 17.5783 15.361 17.648 16.2985 17.5087C16.869 17.423 18.0449 16.7962 18.2886 16.1024C18.5324 15.4113 18.5324 14.8194 18.4601 14.6962C18.3877 14.5649 18.1895 14.4899 17.8976 14.348Z" fill="white"/>
<path d="M23.568 7.35C22.9627 5.91161 22.0948 4.62054 20.9885 3.51161C19.89 2.4091 18.586 1.53274 17.1502 0.932143C15.6769 0.313393 14.1127 0 12.5002 0H12.4466C10.8234 0.00803571 9.25105 0.329464 7.77247 0.961607C6.34897 1.56836 5.05711 2.44628 3.9689 3.54643C2.87337 4.65268 2.01355 5.93839 1.4189 7.37143C0.802831 8.85536 0.492116 10.433 0.500152 12.0562C0.509241 13.9164 0.949327 15.7492 1.78587 17.4107V21.4821C1.78587 21.8089 1.91568 22.1223 2.14675 22.3534C2.37782 22.5845 2.69122 22.7143 3.01801 22.7143H7.09212C8.75362 23.5508 10.5864 23.9909 12.4466 24H12.5028C14.1073 24 15.6635 23.6893 17.1287 23.0813C18.5573 22.4878 19.8565 21.6217 20.9537 20.5312C22.06 19.4357 22.9305 18.1554 23.5385 16.7277C24.1707 15.2491 24.4921 13.6768 24.5002 12.0536C24.5082 10.4223 24.1921 8.83929 23.568 7.35ZM19.5207 19.0821C17.643 20.9411 15.1519 21.9643 12.5002 21.9643H12.4546C10.8394 21.9563 9.23497 21.5545 7.81801 20.7991L7.59301 20.6786H3.82158V16.9071L3.70105 16.6821C2.94569 15.2652 2.5439 13.6607 2.53587 12.0455C2.52515 9.375 3.54569 6.86786 5.41801 4.97946C7.28765 3.09107 9.78676 2.04643 12.4573 2.03571H12.5028C13.8421 2.03571 15.1412 2.29554 16.3653 2.80982C17.56 3.31071 18.6314 4.03125 19.5528 4.95268C20.4716 5.87143 21.1948 6.94554 21.6957 8.14018C22.2153 9.37768 22.4752 10.6902 22.4698 12.0455C22.4537 14.7134 21.4064 17.2125 19.5207 19.0821Z" fill="white"/>
</g>
<defs>
<clipPath id="clip0_547_1174">
<rect width="24" height="24" fill="white" transform="translate(0.5)"/>
</clipPath>
</defs>
</svg>
